<svg xmlns="http://www.w3.org/2000/svg" viewBox="0 0 512 512" style="height: 512px; width: 512px;"><path d="M0 0h512v512H0z" fill="#9b9b9b" fill-opacity="1"></path><g class="" transform="translate(1,12)" style=""><path d="M256 25c-11.594 0-23 12.8-23 31s11.406 31 23 31 23-12.8 23-31-11.406-31-23-31zm-103.951 2.975l-16.098 8.05c15.092 30.185 51.37 56.81 82.188 74.442L232.334 295H247V192h18v103h14.666l14.195-184.533c30.818-17.632 67.096-44.257 82.188-74.442l-16.098-8.05c-19.91 29.9-44.891 49.148-71.334 57.77C281.311 97.28 269.75 105 256 105c-13.75 0-25.31-7.72-32.617-19.256-26.443-8.62-51.424-27.87-71.334-57.77zM169 313v96H25v78h462v-30H343V313H169z" fill="#9b9b9b" fill-opacity="1"></path></g><g class="" transform="translate(299,13)" style=""><g transform="translate(9.6, 9.6) scale(0.7, 0.7) rotate(0, 128, 128)"><circle cx="128" cy="128" r="128" fill="#000" fill-opacity="1"></circle><circle stroke="#fff" stroke-opacity="1" fill="#000" fill-opacity="1" stroke-width="18" cx="128" cy="128" r="101"></circle><path fill="#fff" fill-opacity="1" d="M118.3 168.3h55.6v24H82.08v-24l46.12-40.7q6.2-5.5 9.1-10.9 3-5.3 3-11.1 0-8.85-6-14.27-5.9-5.42-15.8-5.42-7.6 0-16.7 3.3-9.06 3.22-19.38 9.65V71.1q11-3.64 21.78-5.5 10.7-1.95 21-1.95 22.7 0 35.3 9.99 12.6 9.99 12.6 27.86 0 10.3-5.4 19.3-5.3 8.9-22.4 23.9z"></path></g></g><g font-family="Arial, Helvetica, sans-serif" font-size="300" font-style="normal" font-weight="bold" text-anchor="middle" text-decoration=" rgba(255, 255, 255, 1)" class="" transform="translate(144,457)" style=""><g><text stroke="rgba(0, 0, 0, 1)" stroke-width="75"><tspan x="0" y="0">H</tspan></text><text fill="rgba(255, 255, 255, 1)"><tspan x="0" y="0">H</tspan></text></g></g></svg>