<svg xmlns="http://www.w3.org/2000/svg" viewBox="0 0 512 512" style="height: 512px; width: 512px;"><rect fill="#417505" fill-opacity="1" height="512" width="512" rx="32" ry="32"></rect><g class="" transform="translate(9,31)" style=""><path d="M384 64l.387 256H368l-96-128-16 128-96-128-16 128-96-128-16 128v160h448V64h-32v256h-32V64h-32zM64 352h48v32H64v-32zm80 0h48v32h-48v-32zm80 0h48v32h-48v-32zm80 0h48v32h-48v-32zM64 416h48v32H64v-32zm80 0h48v32h-48v-32zm80 0h48v32h-48v-32zm80 0h48v32h-48v-32z" fill="#ffffff" fill-opacity="1" stroke="#000000" stroke-opacity="1" stroke-width="8" transform="translate(25.6, 25.6) scale(0.9, 0.9) rotate(0, 256, 256) skewX(0) skewY(0)"></path></g><g class="" transform="translate(-3,-2)" style=""><g transform="translate(16, 16) scale(0.5, 0.5) rotate(0, 128, 128)"><circle cx="128" cy="128" r="128" fill="#000" fill-opacity="1"></circle><circle stroke="#fff" stroke-opacity="1" fill="#000" fill-opacity="1" stroke-width="18" cx="128" cy="128" r="101"></circle><path fill="#fff" fill-opacity="1" d="M198 140.2a32.94 32.94 0 0 1-64.1 11.7c0 21.5 1.9 35.9 22.1 46.9H99.87c20.13-11 21.93-25.4 21.93-46.9a32.91 32.91 0 1 1-21.93-43 32.94 32.94 0 1 1 54.03 0 32.94 32.94 0 0 1 44.1 31.3z"></path></g></g></svg>