<svg xmlns="http://www.w3.org/2000/svg" viewBox="0 0 512 512" style="height: 512px; width: 512px;"><rect fill="#4a90e2" fill-opacity="1" height="512" width="512" rx="32" ry="32"></rect><g class="" transform="translate(9,31)" style=""><path d="M384 64l.387 256H368l-96-128-16 128-96-128-16 128-96-128-16 128v160h448V64h-32v256h-32V64h-32zM64 352h48v32H64v-32zm80 0h48v32h-48v-32zm80 0h48v32h-48v-32zm80 0h48v32h-48v-32zM64 416h48v32H64v-32zm80 0h48v32h-48v-32zm80 0h48v32h-48v-32zm80 0h48v32h-48v-32z" fill="#ffffff" fill-opacity="1" stroke="#000000" stroke-opacity="1" stroke-width="8" transform="translate(25.6, 25.6) scale(0.9, 0.9) rotate(0, 256, 256) skewX(0) skewY(0)"></path></g><g class="" transform="translate(-3,-2)" style=""><g transform="translate(16, 16) scale(0.5, 0.5) rotate(0, 128, 128)"><circle cx="128" cy="128" r="128" fill="#000" fill-opacity="1"></circle><circle stroke="#fff" stroke-opacity="1" fill="#000" fill-opacity="1" stroke-width="18" cx="128" cy="128" r="101"></circle><path fill="#fff" fill-opacity="1" d="M193 144.6c0 20-17.3 29.2-29.2 29.2-13.4 0-23.4-5.9-29.5-10.9.9 16.3 4.8 28 22 37.2H99.68c17.42-9.2 21.22-20.9 22.02-37.2-6 5-16.1 11-29.45 10.9-11.94 0-29.24-9.2-29.24-29.2 0-36.7 25.82-26.7 64.99-88.65 39.2 61.95 65 51.95 65 88.65z"></path></g></g></svg>