<svg xmlns="http://www.w3.org/2000/svg" viewBox="0 0 512 512" style="height: 512px; width: 512px;"><path d="M0 0h512v512H0z" fill="#c9c9c9" fill-opacity="1"></path><g class="" transform="translate(1,12)" style=""><path d="M256 25c-11.594 0-23 12.8-23 31s11.406 31 23 31 23-12.8 23-31-11.406-31-23-31zm-103.951 2.975l-16.098 8.05c15.092 30.185 51.37 56.81 82.188 74.442L232.334 295H247V192h18v103h14.666l14.195-184.533c30.818-17.632 67.096-44.257 82.188-74.442l-16.098-8.05c-19.91 29.9-44.891 49.148-71.334 57.77C281.311 97.28 269.75 105 256 105c-13.75 0-25.31-7.72-32.617-19.256-26.443-8.62-51.424-27.87-71.334-57.77zM169 313v96H25v78h462v-30H343V313H169z" fill="#c9c9c9" fill-opacity="1"></path></g><g class="" transform="translate(246,12)" style=""><g><circle cx="128" cy="128" r="128" fill="#000" fill-opacity="1"></circle><circle stroke="#fff" stroke-opacity="1" fill="#000" fill-opacity="1" stroke-width="18" cx="128" cy="128" r="101"></circle><path fill="#fff" fill-opacity="1" d="M84.18 168.7H113V86.99l-29.58 6.1V70.91l29.38-6.09h31V168.7h28.8v22.5H84.18z"></path></g></g><g font-family="Arial, Helvetica, sans-serif" font-size="300" font-style="normal" font-weight="bold" text-anchor="middle" text-decoration=" rgba(255, 255, 255, 1)" class="" transform="translate(154,456)" style=""><g><text stroke="rgba(0, 0, 0, 1)" stroke-width="75"><tspan x="0" y="0">G</tspan></text><text fill="rgba(255, 255, 255, 1)"><tspan x="0" y="0">G</tspan></text></g></g></svg>